<svg width="128" height="33" viewBox="0 0 128 33" fill="none" xmlns="http://www.w3.org/2000/svg">
<g id="Scriptly">
<path id="Vector" d="M115.86 24.0291L108.727 7.27344H113.902L118.35 18.0429L122.825 7.27344H128L119.105 28.0571C118.489 29.493 117.632 30.528 116.531 31.1621C115.431 31.8148 114.256 32.1411 113.007 32.1411C111.795 32.1411 110.648 31.8614 109.566 31.3019C108.503 30.7611 107.552 29.9313 106.713 28.8124L110.098 25.3997C110.564 26.0151 111.077 26.4906 111.636 26.8263C112.214 27.1806 112.764 27.3578 113.286 27.3578C113.659 27.3578 113.995 27.2552 114.293 27.0501C114.592 26.845 114.816 26.5559 114.965 26.183L115.86 24.0291Z" fill="url(#paint0_linear_7_7204)"/>
<path id="Vector_2" d="M101.022 24.1675V0.558594H105.918V24.1675H101.022Z" fill="url(#paint1_linear_7_7204)"/>
<path id="Vector_3" d="M85.8462 7.27279H88.6435V0.699219H93.5387V7.27279H97.7066L97.1471 12.0561H93.5387V17.0073C93.5387 18.0516 93.6039 18.8069 93.7345 19.2731C93.865 19.7206 94.1914 19.9444 94.7135 19.9444C95.1424 19.9444 95.5434 19.8885 95.9163 19.7766C96.308 19.646 96.6809 19.4036 97.0352 19.0493L99.1052 23.1892C98.5271 23.7114 97.8558 24.0937 97.0912 24.3361C96.3453 24.5972 95.5527 24.7277 94.7135 24.7277C93.5387 24.7277 92.5596 24.5785 91.7764 24.2802C90.9932 23.9818 90.3684 23.5156 89.9022 22.8815C89.4547 22.2661 89.1283 21.4736 88.9232 20.5039C88.7367 19.5341 88.6435 18.3779 88.6435 17.0352V12.0561H85.8462V7.27279Z" fill="url(#paint2_linear_7_7204)"/>
<path id="Vector_4" d="M69.7192 8.95146C70.26 8.26147 70.95 7.73932 71.7892 7.385C72.647 7.03068 73.5981 6.85352 74.6424 6.85352C75.9851 6.85352 77.1786 7.06797 78.2229 7.49689C79.2859 7.90715 80.181 8.5039 80.9083 9.28714C81.6356 10.0517 82.1857 10.9841 82.5587 12.0844C82.9316 13.166 83.1181 14.3875 83.1181 15.7488C83.1181 17.3153 82.8943 18.6673 82.4468 19.8049C81.9992 20.9424 81.4025 21.8748 80.6565 22.6021C79.9106 23.3294 79.0434 23.8609 78.0551 24.1966C77.0667 24.5509 76.041 24.728 74.9781 24.728C73.9897 24.728 73.048 24.5602 72.1528 24.2245C71.2577 23.9075 70.4931 23.4227 69.8591 22.77V31.8611H64.9639V7.27311H69.7192V8.95146ZM69.8591 15.7488C69.8591 17.1102 70.2321 18.1545 70.978 18.8818C71.7239 19.5904 72.7496 19.9447 74.055 19.9447C74.6144 19.9447 75.1459 19.8608 75.6494 19.693C76.1529 19.5251 76.5912 19.2734 76.9641 18.9377C77.3558 18.5834 77.6635 18.1451 77.8872 17.623C78.111 17.0822 78.2229 16.4575 78.2229 15.7488C78.2229 14.5367 77.8593 13.5483 77.132 12.7837C76.4233 12.0191 75.3883 11.6368 74.027 11.6368C72.7962 11.6368 71.7892 12.0005 71.006 12.7278C70.2414 13.4364 69.8591 14.4434 69.8591 15.7488Z" fill="url(#paint3_linear_7_7204)"/>
<path id="Vector_5" d="M56.1406 24.1677V8.95062H61.0358V24.1677H56.1406ZM56.1406 6.54498V1.67773H61.0358V6.54498H56.1406Z" fill="url(#paint4_linear_7_7204)"/>
<path id="Vector_6" d="M53.078 12.0285C52.4067 11.7674 51.7913 11.6368 51.2319 11.6368C50.7097 11.6368 50.2248 11.7394 49.7773 11.9445C49.3484 12.1497 48.9661 12.448 48.6304 12.8397C48.3134 13.2126 48.0616 13.6788 47.8751 14.2383C47.6887 14.7977 47.5954 15.4225 47.5954 16.1125V24.1686H42.7002V7.27311H47.5954V8.97944C48.0803 8.2708 48.6863 7.73932 49.4136 7.385C50.1596 7.03068 50.9242 6.85352 51.7074 6.85352C52.5279 6.85352 53.3018 7.04932 54.0291 7.44094L53.078 12.0285Z" fill="url(#paint5_linear_7_7204)"/>
<path id="Vector_7" d="M40.1697 20.9511C39.5356 21.6597 38.8923 22.2472 38.2396 22.7134C37.5869 23.1982 36.9062 23.5899 36.1976 23.8882C35.4889 24.1866 34.743 24.4011 33.9597 24.5316C33.1952 24.6621 32.3746 24.7274 31.4981 24.7274C30.2673 24.7274 29.0739 24.5596 27.9176 24.2239C26.7801 23.8882 25.7638 23.3661 24.8686 22.6574C23.9922 21.9488 23.2835 21.035 22.7427 19.9161C22.2206 18.7972 21.9595 17.4545 21.9595 15.8881C21.9595 14.3589 22.1739 13.0348 22.6028 11.9159C23.0504 10.7784 23.6751 9.83664 24.477 9.0907C25.2975 8.34476 26.2766 7.79463 27.4141 7.44031C28.5703 7.06734 29.8478 6.88086 31.2464 6.88086C32.1602 6.88086 32.9993 6.95545 33.7639 7.10464C34.5472 7.23518 35.2651 7.44964 35.9178 7.74801C36.5892 8.04639 37.2046 8.438 37.764 8.92286C38.3421 9.38907 38.8923 9.95785 39.4144 10.6292L35.8899 14.0419C35.3677 13.3332 34.7243 12.7644 33.9597 12.3355C33.1952 11.888 32.2814 11.6642 31.2184 11.6642C29.8011 11.6642 28.7195 12.0465 27.9736 12.8111C27.2277 13.5756 26.8547 14.6013 26.8547 15.8881C26.8547 16.5594 26.9759 17.1561 27.2183 17.6783C27.4794 18.1818 27.8151 18.6014 28.2253 18.9371C28.6543 19.2727 29.1484 19.5245 29.7079 19.6923C30.2674 19.8602 30.8548 19.9441 31.4702 19.9441C32.0669 19.9441 32.6077 19.9068 33.0926 19.8322C33.5961 19.7576 34.0716 19.6364 34.5192 19.4686C34.9668 19.2821 35.3957 19.0303 35.8059 18.7133C36.2162 18.3776 36.6451 17.958 37.0927 17.4545L40.1697 20.9511Z" fill="url(#paint6_linear_7_7204)"/>
<path id="Vector_8" d="M13.6786 17.9025C13.6786 17.4363 13.5481 17.0353 13.287 16.6997C13.0446 16.364 12.7089 16.075 12.28 15.8325C11.8511 15.5901 11.3476 15.385 10.7695 15.2171C10.1914 15.0306 9.5853 14.8535 8.95125 14.6856C7.96288 14.4432 6.94654 14.1728 5.90223 13.8744C4.87657 13.5761 3.93482 13.1658 3.07699 12.6436C2.21916 12.1028 1.51052 11.4128 0.95107 10.5737C0.410266 9.71584 0.139863 8.60625 0.139863 7.24492C0.139863 5.97682 0.363645 4.88589 0.811207 3.97212C1.25877 3.05834 1.88349 2.31241 2.68537 1.7343C3.48726 1.13755 4.44765 0.699316 5.56656 0.419589C6.68546 0.139863 7.91626 0 9.25895 0C10.21 0 11.1051 0.0745939 11.9443 0.223782C12.8021 0.372968 13.6227 0.624722 14.4059 0.979042C15.1891 1.31471 15.9444 1.7716 16.6717 2.3497C17.399 2.90916 18.0983 3.60847 18.7696 4.44765L14.8814 7.52464C14.1915 6.53628 13.3989 5.83696 12.5038 5.42669C11.6273 4.99778 10.555 4.78332 9.28692 4.78332C8.70882 4.78332 8.15869 4.82994 7.63653 4.92319C7.13303 4.99778 6.68546 5.12832 6.29385 5.3148C5.90223 5.50129 5.59453 5.75304 5.37075 6.07007C5.14697 6.38709 5.03508 6.77871 5.03508 7.24492C5.03508 7.74842 5.19359 8.16801 5.51061 8.50368C5.84628 8.83936 6.28452 9.13773 6.82533 9.39881C7.38478 9.64124 8.01883 9.86502 8.72747 10.0702C9.43611 10.2566 10.182 10.4524 10.9653 10.6576C11.9164 10.9187 12.8767 11.217 13.8465 11.5527C14.8162 11.8884 15.6927 12.3266 16.4759 12.8674C17.2591 13.3896 17.8932 14.0609 18.378 14.8815C18.8629 15.6833 19.1053 16.6903 19.1053 17.9025C19.1053 19.0773 18.8442 20.0937 18.3221 20.9515C17.8186 21.8093 17.1286 22.518 16.2521 23.0774C15.3756 23.6369 14.3593 24.0472 13.2031 24.3082C12.0655 24.588 10.872 24.7278 9.62259 24.7278C8.72747 24.7278 7.83234 24.6439 6.93722 24.4761C6.04209 24.3269 5.17494 24.0938 4.33576 23.7768C3.49658 23.4597 2.70402 23.0495 1.95809 22.546C1.2308 22.0424 0.578102 21.4457 0 20.7557L3.13294 16.6437C3.97212 17.7999 4.94184 18.6391 6.04209 19.1613C7.14235 19.6834 8.40112 19.9445 9.8184 19.9445C10.9373 19.9445 11.8604 19.786 12.5877 19.469C13.315 19.1519 13.6786 18.6298 13.6786 17.9025Z" fill="url(#paint7_linear_7_7204)"/>
</g>
<defs>
<linearGradient id="paint0_linear_7_7204" x1="-1.76221" y1="15.7851" x2="129.11" y2="15.7851" gradientUnits="userSpaceOnUse">
<stop stop-color="#71E49F"/>
<stop offset="1" stop-color="#3252F1"/>
</linearGradient>
<linearGradient id="paint1_linear_7_7204" x1="-1.76216" y1="15.7837" x2="129.11" y2="15.7837" gradientUnits="userSpaceOnUse">
<stop stop-color="#71E49F"/>
<stop offset="1" stop-color="#3252F1"/>
</linearGradient>
<linearGradient id="paint2_linear_7_7204" x1="-1.7624" y1="15.7845" x2="129.11" y2="15.7845" gradientUnits="userSpaceOnUse">
<stop stop-color="#71E49F"/>
<stop offset="1" stop-color="#3252F1"/>
</linearGradient>
<linearGradient id="paint3_linear_7_7204" x1="-1.76227" y1="15.7848" x2="129.11" y2="15.7848" gradientUnits="userSpaceOnUse">
<stop stop-color="#71E49F"/>
<stop offset="1" stop-color="#3252F1"/>
</linearGradient>
<linearGradient id="paint4_linear_7_7204" x1="-1.7621" y1="15.7839" x2="129.11" y2="15.7839" gradientUnits="userSpaceOnUse">
<stop stop-color="#71E49F"/>
<stop offset="1" stop-color="#3252F1"/>
</linearGradient>
<linearGradient id="paint5_linear_7_7204" x1="-1.76255" y1="15.7848" x2="129.109" y2="15.7848" gradientUnits="userSpaceOnUse">
<stop stop-color="#71E49F"/>
<stop offset="1" stop-color="#3252F1"/>
</linearGradient>
<linearGradient id="paint6_linear_7_7204" x1="-1.76243" y1="15.7842" x2="129.11" y2="15.7842" gradientUnits="userSpaceOnUse">
<stop stop-color="#71E49F"/>
<stop offset="1" stop-color="#3252F1"/>
</linearGradient>
<linearGradient id="paint7_linear_7_7204" x1="-1.76228" y1="15.7846" x2="129.11" y2="15.7846" gradientUnits="userSpaceOnUse">
<stop stop-color="#71E49F"/>
<stop offset="1" stop-color="#3252F1"/>
</linearGradient>
</defs>
</svg>
