<svg width="16" height="16" viewBox="0 0 16 16" fill="none" xmlns="http://www.w3.org/2000/svg">
<g id="star-01">
<path id="Icon" d="M7.52193 2.30205C7.67559 1.99076 7.75242 1.83511 7.85672 1.78538C7.94746 1.74211 8.05289 1.74211 8.14363 1.78538C8.24793 1.83511 8.32476 1.99076 8.47842 2.30205L9.9362 5.25536C9.98157 5.34726 10.0042 5.39321 10.0374 5.42889C10.0667 5.46048 10.1019 5.48607 10.141 5.50425C10.1852 5.52479 10.2359 5.5322 10.3373 5.54702L13.5982 6.02364C13.9415 6.07383 14.1132 6.09893 14.1927 6.1828C14.2618 6.25577 14.2943 6.35603 14.2812 6.45569C14.266 6.57022 14.1417 6.69129 13.8931 6.93342L11.5345 9.23078C11.4609 9.3024 11.4242 9.33821 11.4004 9.38081C11.3794 9.41854 11.366 9.45998 11.3608 9.50284C11.3549 9.55125 11.3636 9.60183 11.3809 9.703L11.9375 12.9479C11.9962 13.2902 12.0255 13.4613 11.9704 13.5628C11.9224 13.6512 11.8371 13.7132 11.7382 13.7315C11.6246 13.7525 11.4709 13.6717 11.1636 13.5101L8.24841 11.9771C8.15758 11.9293 8.11217 11.9054 8.06432 11.896C8.02196 11.8877 7.97839 11.8877 7.93602 11.896C7.88818 11.9054 7.84276 11.9293 7.75193 11.9771L4.83678 13.5101C4.52944 13.6717 4.37577 13.7525 4.26214 13.7315C4.16328 13.7132 4.07798 13.6512 4.02999 13.5628C3.97483 13.4613 4.00418 13.2902 4.06288 12.9479L4.61942 9.703C4.63677 9.60183 4.64545 9.55125 4.63958 9.50284C4.63438 9.45998 4.6209 9.41854 4.5999 9.38081C4.57618 9.33821 4.53941 9.3024 4.46589 9.23078L2.1072 6.93342C1.8586 6.69129 1.73431 6.57022 1.71918 6.45569C1.70602 6.35603 1.73853 6.25577 1.80766 6.1828C1.88712 6.09893 2.05881 6.07383 2.40219 6.02364L5.66304 5.54702C5.76445 5.5322 5.81515 5.52479 5.85931 5.50425C5.89841 5.48607 5.9336 5.46048 5.96295 5.42889C5.9961 5.39321 6.01878 5.34726 6.06415 5.25536L7.52193 2.30205Z" stroke="black" stroke-width="1.2" stroke-linecap="round" stroke-linejoin="round"/>
</g>
</svg>
